<?xml version="1.0" encoding="UTF-8"?>
<svg width="64px" height="64px" viewBox="0 0 64 64" version="1.1" xmlns="http://www.w3.org/2000/svg" xmlns:xlink="http://www.w3.org/1999/xlink">
    <!-- Generator: Sketch 60 (88103) - https://sketch.com -->
    <title>Group 2</title>
    <desc>Created with Sketch.</desc>
    <g id="Option_02" stroke="none" stroke-width="1" fill="none" fill-rule="evenodd">
        <g id="02_Blog_Detail" transform="translate(-1226.000000, -445.000000)" fill="#000000" fill-rule="nonzero">
            <g id="Group-8" transform="translate(1022.000000, 445.000000)">
                <g id="Group-2" transform="translate(204.000000, 0.000000)">
                    <path d="M32,0 C49.673112,0 64,14.326888 64,32 C64,49.673112 49.673112,64 32,64 C14.326888,64 0,49.673112 0,32 C0,14.326888 14.326888,0 32,0 Z M32,2 C15.4314575,2 2,15.4314575 2,32 C2,48.5685425 15.4314575,62 32,62 C48.5685425,62 62,48.5685425 62,32 C62,15.4314575 48.5685425,2 32,2 Z M39.1899872,16 C40.7817715,16 42.254172,16.6376812 43.2888318,17.7137681 C44.3632863,18.7898551 45,20.2246377 45,21.8586957 C45,23.4528986 44.3632863,24.9275362 43.2888318,25.9637681 C42.254172,27 40.7817715,27.6775362 39.1899872,27.6775362 C38.1155327,27.6775362 37.1206675,27.3985507 36.2849807,26.8804348 C35.648267,26.4021739 35.0911425,25.923913 34.6136072,25.326087 L25.3016688,30.4673913 C25.5006418,31.1050725 25.6598203,31.7427536 25.6598203,32.4601449 C25.6598203,33.1775362 25.5404365,33.8152174 25.3016688,34.4528986 L34.6136072,39.5942029 C35.0513479,39.0362319 35.6084724,38.5181159 36.2451861,38.1594203 C37.1206675,37.6413043 38.1155327,37.3623188 39.1899872,37.3623188 C40.8215661,37.3623188 42.254172,38 43.2888318,39.076087 C44.3632863,40.1123188 45,41.5869565 45,43.1811594 C45,44.7753623 44.3632863,46.25 43.2888318,47.2862319 C42.254172,48.3623188 40.7817715,49 39.1899872,49 C37.5982028,49 36.1258023,48.3623188 35.0911425,47.2862319 C34.0166881,46.25 33.3799743,44.7753623 33.3799743,43.1811594 C33.3799743,42.7028986 33.4595635,42.1847826 33.5789474,41.7065217 C33.618742,41.5471014 33.6983312,41.3478261 33.7381258,41.1884058 L24.4261874,36.0471014 C24.267009,36.2463768 24.1078306,36.4057971 23.9486521,36.6050725 C22.8741977,37.6811594 21.4415918,38.3188406 19.8498074,38.3188406 C18.2182285,38.3188406 16.7856226,37.6811594 15.7111682,36.6050725 C14.6765083,35.5688406 14,34.0942029 14,32.5 C14,30.9057971 14.6367137,29.4311594 15.7111682,28.3949275 C16.7856226,27.3586957 18.2182285,26.6811594 19.8498074,26.6811594 C21.4415918,26.6811594 22.9139923,27.3188406 23.9486521,28.3949275 C24.1078306,28.5543478 24.267009,28.7536232 24.4261874,28.9528986 L33.7381258,23.8115942 C33.6983312,23.6521739 33.618742,23.4528986 33.5789474,23.2934783 C33.4595635,22.8152174 33.3799743,22.3369565 33.3799743,21.8586957 C33.3799743,20.2246377 34.0166881,18.7898551 35.0911425,17.7137681 C36.1258023,16.6775362 37.5982028,16 39.1899872,16 Z M39.2297818,39.115942 C38.4736842,39.115942 37.7971759,39.3152174 37.2002567,39.673913 C36.563543,40.0326087 36.0860077,40.5507246 35.7278562,41.1884058 C35.5686778,41.4673913 35.449294,41.7862319 35.3697047,42.1050725 C35.2901155,42.423913 35.2503209,42.7427536 35.2503209,43.1014493 C35.2503209,44.2173913 35.6880616,45.2137681 36.4043646,45.9311594 C37.1206675,46.6485507 38.1155327,47.0869565 39.2297818,47.0869565 C40.3440308,47.0869565 41.338896,46.6485507 42.055199,45.9311594 C42.7715019,45.2137681 43.2092426,44.2173913 43.2092426,43.1014493 C43.2092426,41.9855072 42.7715019,40.9891304 42.055199,40.2717391 C41.338896,39.5543478 40.3440308,39.115942 39.2297818,39.115942 Z M19.8100128,28.4347826 C18.6957638,28.4347826 17.7008986,28.8731884 16.9845956,29.5905797 C16.2682927,30.307971 15.830552,31.3043478 15.830552,32.4202899 C15.830552,33.5362319 16.2682927,34.5326087 16.9845956,35.25 C17.7008986,35.9673913 18.6957638,36.4057971 19.8100128,36.4057971 C20.9242619,36.4057971 21.9191271,35.9673913 22.63543,35.25 C23.351733,34.5326087 23.7894737,33.5362319 23.7894737,32.4202899 C23.7894737,31.3043478 23.3915276,30.307971 22.63543,29.5905797 C21.9191271,28.8731884 20.9242619,28.4347826 19.8100128,28.4347826 Z M39.2297818,17.7934783 C38.1155327,17.7934783 37.1206675,18.2318841 36.4043646,18.9492754 C35.6880616,19.6666667 35.2503209,20.6630435 35.2503209,21.7789855 C35.2503209,22.1376812 35.2901155,22.4565217 35.3697047,22.7753623 C35.4094994,23.0543478 35.5288832,23.3731884 35.7278562,23.692029 L35.7676508,23.7717391 C36.1258023,24.3695652 36.6431322,24.8876812 37.2400513,25.2463768 C37.8369705,25.6050725 38.5134788,25.7644928 39.2297818,25.7644928 C40.3440308,25.7644928 41.338896,25.326087 42.055199,24.6086957 C42.7715019,23.8913043 43.2092426,22.8949275 43.2092426,21.7789855 C43.2092426,20.6630435 42.7715019,19.6666667 42.055199,18.9492754 C41.338896,18.2318841 40.3440308,17.7934783 39.2297818,17.7934783 Z" id="Combined-Shape"></path>
                </g>
            </g>
        </g>
    </g>
</svg>